<mxfile host="app.diagrams.net" agent="Mozilla/5.0 (Windows NT 10.0; Win64; x64) AppleWebKit/537.36 (KHTML, like Gecko) Chrome/129.0.0.0 Safari/537.36" version="24.7.17">
  <diagram name="Page-1" id="vzvGimC2ZWzJ7CtdGGF6">
    <mxGraphModel dx="1035" dy="551" grid="1" gridSize="10" guides="1" tooltips="1" connect="1" arrows="1" fold="1" page="1" pageScale="1" pageWidth="850" pageHeight="1100" math="0" shadow="0">
      <root>
        <mxCell id="0" />
        <mxCell id="1" parent="0" />
        <mxCell id="ln5-lzJeqzIEXs2e9yu0-1" value="" style="ellipse;html=1;shape=startState;fillColor=#000000;strokeColor=#ff0000;" vertex="1" parent="1">
          <mxGeometry x="201" y="10" width="30" height="30" as="geometry" />
        </mxCell>
        <mxCell id="ln5-lzJeqzIEXs2e9yu0-2" value="" style="edgeStyle=orthogonalEdgeStyle;html=1;verticalAlign=bottom;endArrow=open;endSize=8;strokeColor=#ff0000;rounded=0;" edge="1" source="ln5-lzJeqzIEXs2e9yu0-1" parent="1">
          <mxGeometry relative="1" as="geometry">
            <mxPoint x="216" y="100" as="targetPoint" />
          </mxGeometry>
        </mxCell>
        <mxCell id="ln5-lzJeqzIEXs2e9yu0-3" value="Realizar o cadastro" style="rounded=1;whiteSpace=wrap;html=1;" vertex="1" parent="1">
          <mxGeometry x="156" y="110" width="120" height="60" as="geometry" />
        </mxCell>
        <mxCell id="ln5-lzJeqzIEXs2e9yu0-4" value="Dados preenchidos corretamente" style="strokeWidth=2;html=1;shape=mxgraph.flowchart.decision;whiteSpace=wrap;" vertex="1" parent="1">
          <mxGeometry x="130" y="220" width="176" height="83.33" as="geometry" />
        </mxCell>
        <mxCell id="ln5-lzJeqzIEXs2e9yu0-6" value="" style="endArrow=none;html=1;rounded=0;exitX=0.5;exitY=0;exitDx=0;exitDy=0;exitPerimeter=0;entryX=0.519;entryY=1;entryDx=0;entryDy=0;entryPerimeter=0;" edge="1" parent="1" source="ln5-lzJeqzIEXs2e9yu0-4" target="ln5-lzJeqzIEXs2e9yu0-3">
          <mxGeometry width="50" height="50" relative="1" as="geometry">
            <mxPoint x="191" y="220" as="sourcePoint" />
            <mxPoint x="241" y="170" as="targetPoint" />
          </mxGeometry>
        </mxCell>
        <mxCell id="ln5-lzJeqzIEXs2e9yu0-7" value="" style="endArrow=none;html=1;rounded=0;" edge="1" parent="1">
          <mxGeometry width="50" height="50" relative="1" as="geometry">
            <mxPoint x="70" y="262" as="sourcePoint" />
            <mxPoint x="129" y="262" as="targetPoint" />
          </mxGeometry>
        </mxCell>
        <mxCell id="ln5-lzJeqzIEXs2e9yu0-10" value="Não" style="edgeLabel;html=1;align=center;verticalAlign=middle;resizable=0;points=[];" vertex="1" connectable="0" parent="ln5-lzJeqzIEXs2e9yu0-7">
          <mxGeometry x="-0.1429" relative="1" as="geometry">
            <mxPoint as="offset" />
          </mxGeometry>
        </mxCell>
        <mxCell id="ln5-lzJeqzIEXs2e9yu0-8" value="" style="endArrow=none;html=1;rounded=0;" edge="1" parent="1">
          <mxGeometry width="50" height="50" relative="1" as="geometry">
            <mxPoint x="70" y="262" as="sourcePoint" />
            <mxPoint x="70" y="130" as="targetPoint" />
          </mxGeometry>
        </mxCell>
        <mxCell id="ln5-lzJeqzIEXs2e9yu0-9" value="" style="endArrow=classic;html=1;rounded=0;" edge="1" parent="1">
          <mxGeometry width="50" height="50" relative="1" as="geometry">
            <mxPoint x="70" y="130" as="sourcePoint" />
            <mxPoint x="150" y="130" as="targetPoint" />
          </mxGeometry>
        </mxCell>
        <mxCell id="ln5-lzJeqzIEXs2e9yu0-11" value="" style="endArrow=classic;html=1;rounded=0;" edge="1" parent="1">
          <mxGeometry width="50" height="50" relative="1" as="geometry">
            <mxPoint x="307" y="262" as="sourcePoint" />
            <mxPoint x="377" y="262" as="targetPoint" />
          </mxGeometry>
        </mxCell>
        <mxCell id="ln5-lzJeqzIEXs2e9yu0-12" value="Sim" style="edgeLabel;html=1;align=center;verticalAlign=middle;resizable=0;points=[];" vertex="1" connectable="0" parent="ln5-lzJeqzIEXs2e9yu0-11">
          <mxGeometry x="-0.1429" y="2" relative="1" as="geometry">
            <mxPoint as="offset" />
          </mxGeometry>
        </mxCell>
        <mxCell id="ln5-lzJeqzIEXs2e9yu0-13" value="Envio dos dados para o banco de dados" style="rounded=1;whiteSpace=wrap;html=1;" vertex="1" parent="1">
          <mxGeometry x="380" y="230" width="120" height="60" as="geometry" />
        </mxCell>
        <mxCell id="ln5-lzJeqzIEXs2e9yu0-14" value="" style="endArrow=classic;html=1;rounded=0;" edge="1" parent="1">
          <mxGeometry width="50" height="50" relative="1" as="geometry">
            <mxPoint x="440" y="290" as="sourcePoint" />
            <mxPoint x="440" y="340" as="targetPoint" />
          </mxGeometry>
        </mxCell>
        <mxCell id="ln5-lzJeqzIEXs2e9yu0-18" value="" style="line;strokeWidth=4;html=1;perimeter=backbonePerimeter;points=[];outlineConnect=0;" vertex="1" parent="1">
          <mxGeometry x="360" y="340" width="160" height="10" as="geometry" />
        </mxCell>
        <mxCell id="ln5-lzJeqzIEXs2e9yu0-19" value="" style="endArrow=classic;html=1;rounded=0;" edge="1" parent="1">
          <mxGeometry width="50" height="50" relative="1" as="geometry">
            <mxPoint x="425" y="347" as="sourcePoint" />
            <mxPoint x="390" y="390" as="targetPoint" />
          </mxGeometry>
        </mxCell>
        <mxCell id="ln5-lzJeqzIEXs2e9yu0-20" value="" style="endArrow=classic;html=1;rounded=0;" edge="1" parent="1">
          <mxGeometry width="50" height="50" relative="1" as="geometry">
            <mxPoint x="450" y="346" as="sourcePoint" />
            <mxPoint x="490" y="390" as="targetPoint" />
          </mxGeometry>
        </mxCell>
        <mxCell id="ln5-lzJeqzIEXs2e9yu0-21" value="Validação dos dados" style="rounded=1;whiteSpace=wrap;html=1;" vertex="1" parent="1">
          <mxGeometry x="306" y="393" width="120" height="60" as="geometry" />
        </mxCell>
        <mxCell id="ln5-lzJeqzIEXs2e9yu0-22" value="Realização do login" style="rounded=1;whiteSpace=wrap;html=1;" vertex="1" parent="1">
          <mxGeometry x="453" y="393" width="120" height="60" as="geometry" />
        </mxCell>
        <mxCell id="ln5-lzJeqzIEXs2e9yu0-23" value="" style="endArrow=classic;html=1;rounded=0;" edge="1" parent="1">
          <mxGeometry width="50" height="50" relative="1" as="geometry">
            <mxPoint x="389" y="453" as="sourcePoint" />
            <mxPoint x="429" y="490" as="targetPoint" />
          </mxGeometry>
        </mxCell>
        <mxCell id="ln5-lzJeqzIEXs2e9yu0-25" value="" style="endArrow=classic;html=1;rounded=0;" edge="1" parent="1">
          <mxGeometry width="50" height="50" relative="1" as="geometry">
            <mxPoint x="495" y="453" as="sourcePoint" />
            <mxPoint x="455" y="490" as="targetPoint" />
          </mxGeometry>
        </mxCell>
        <mxCell id="ln5-lzJeqzIEXs2e9yu0-26" value="" style="line;strokeWidth=4;html=1;perimeter=backbonePerimeter;points=[];outlineConnect=0;" vertex="1" parent="1">
          <mxGeometry x="360" y="483" width="160" height="10" as="geometry" />
        </mxCell>
        <mxCell id="ln5-lzJeqzIEXs2e9yu0-28" value="" style="endArrow=classic;html=1;rounded=0;" edge="1" parent="1">
          <mxGeometry width="50" height="50" relative="1" as="geometry">
            <mxPoint x="439.76" y="490" as="sourcePoint" />
            <mxPoint x="439.76" y="527" as="targetPoint" />
          </mxGeometry>
        </mxCell>
        <mxCell id="ln5-lzJeqzIEXs2e9yu0-29" value="Cadastro realizado" style="rounded=1;whiteSpace=wrap;html=1;" vertex="1" parent="1">
          <mxGeometry x="380" y="530" width="120" height="60" as="geometry" />
        </mxCell>
        <mxCell id="ln5-lzJeqzIEXs2e9yu0-30" value="" style="ellipse;html=1;shape=endState;fillColor=#000000;strokeColor=#ff0000;" vertex="1" parent="1">
          <mxGeometry x="425" y="628" width="30" height="30" as="geometry" />
        </mxCell>
        <mxCell id="ln5-lzJeqzIEXs2e9yu0-31" value="" style="endArrow=classic;html=1;rounded=0;" edge="1" parent="1">
          <mxGeometry width="50" height="50" relative="1" as="geometry">
            <mxPoint x="439.82" y="590" as="sourcePoint" />
            <mxPoint x="439.82" y="627" as="targetPoint" />
          </mxGeometry>
        </mxCell>
      </root>
    </mxGraphModel>
  </diagram>
</mxfile>
